<?xml version="1.0" encoding="UTF-8" standalone="no"?>
<!DOCTYPE svg PUBLIC "-//W3C//DTD SVG 1.1//EN" "http://www.w3.org/Graphics/SVG/1.1/DTD/svg11.dtd">
<svg width="100%" height="100%" viewBox="0 0 1842 1839" version="1.1" xmlns="http://www.w3.org/2000/svg" xmlns:xlink="http://www.w3.org/1999/xlink" xml:space="preserve" xmlns:serif="http://www.serif.com/" style="fill-rule:evenodd;clip-rule:evenodd;stroke-linecap:round;stroke-linejoin:round;stroke-miterlimit:1.5;">
    <g transform="matrix(1,0,0,1,-931.7,-967.167)">
        <g>
            <g>
                <path d="M1259.54,2397.83L2368,1269" style="fill:none;stroke:white;stroke-width:41.67px;"/>
                <path d="M1276,1235L2396,2430" style="fill:none;stroke:white;stroke-width:41.67px;"/>
                <path d="M1843,1092L1843,2573" style="fill:none;stroke:white;stroke-width:41.67px;"/>
                <path d="M1088,1809L2604,1809" style="fill:none;stroke:white;stroke-width:41.67px;"/>
            </g>
            <g transform="matrix(1,0,0,1,287,-220)">
                <circle cx="1568" cy="2104" r="814" style="fill:none;stroke:white;stroke-width:41.67px;"/>
            </g>
            <g>
                <g transform="matrix(1,0,0,1,-67,-43)">
                    <circle cx="1905" cy="1128" r="97" style="fill:rgb(236,82,66);stroke:white;stroke-width:41.67px;"/>
                </g>
                <g transform="matrix(1,0,0,1,-64,1559.93)">
                    <circle cx="1905" cy="1128" r="97" style="fill:rgb(236,82,66);stroke:white;stroke-width:41.67px;"/>
                </g>
                <g transform="matrix(1,0,0,1,-855.467,695.8)">
                    <circle cx="1905" cy="1128" r="97" style="fill:rgb(236,82,66);stroke:white;stroke-width:41.67px;"/>
                </g>
                <g transform="matrix(1,0,0,1,750.64,696.8)">
                    <circle cx="1905" cy="1128" r="97" style="fill:rgb(236,82,66);stroke:white;stroke-width:41.67px;"/>
                </g>
                <g transform="matrix(1,0,0,1,-56,20)">
                    <circle cx="1901" cy="1779" r="183" style="fill:white;"/>
                </g>
                <g transform="matrix(1,0,0,1,472.733,121.667)">
                    <circle cx="1905" cy="1128" r="97" style="fill:rgb(10,27,156);stroke:white;stroke-width:41.67px;"/>
                </g>
                <g transform="matrix(1,0,0,1,-597.867,147.667)">
                    <circle cx="1905" cy="1128" r="97" style="fill:rgb(10,27,156);stroke:white;stroke-width:41.67px;"/>
                </g>
                <g transform="matrix(1,0,0,1,516.533,1329.93)">
                    <circle cx="1905" cy="1128" r="97" style="fill:rgb(10,27,156);stroke:white;stroke-width:41.67px;"/>
                </g>
                <g transform="matrix(1,0,0,1,-655.333,1297.93)">
                    <circle cx="1905" cy="1128" r="97" style="fill:rgb(10,27,156);stroke:white;stroke-width:41.67px;"/>
                </g>
            </g>
        </g>
    </g>
</svg>
