<?xml version="1.0" encoding="UTF-8" standalone="no"?>
<!DOCTYPE svg PUBLIC "-//W3C//DTD SVG 1.1//EN" "http://www.w3.org/Graphics/SVG/1.1/DTD/svg11.dtd">
<svg width="100%" height="100%" viewBox="0 0 1443 1838" version="1.1" xmlns="http://www.w3.org/2000/svg" xmlns:xlink="http://www.w3.org/1999/xlink" xml:space="preserve" xmlns:serif="http://www.serif.com/" style="fill-rule:evenodd;clip-rule:evenodd;stroke-linecap:round;stroke-linejoin:round;stroke-miterlimit:1.5;">
    <g transform="matrix(1,0,0,1,-954.333,-896)">
        <g>
            <g>
                <g>
                    <g transform="matrix(1,0,0,1,-16,-47)">
                        <ellipse cx="1611" cy="1150" rx="152" ry="182" style="fill:none;stroke:white;stroke-width:50px;"/>
                    </g>
                    <g transform="matrix(2.07895,0,0,1.18407,-1743.71,170.65)">
                        <ellipse cx="1611" cy="1150" rx="152" ry="182" style="fill:none;stroke:white;stroke-width:29.56px;"/>
                    </g>
                </g>
                <g>
                    <g transform="matrix(1.16667,0,0,1.02941,-337.833,-53.4118)">
                        <ellipse cx="1973" cy="1204" rx="54" ry="68" style="fill:none;stroke:white;stroke-width:18.94px;"/>
                    </g>
                    <path d="M2212,1585C2212,1585 2220.31,1317.94 2020.61,1216.74" style="fill:none;stroke:white;stroke-width:20.83px;"/>
                </g>
            </g>
            <g>
                <rect x="1065" y="1737" width="1221" height="955" style="fill:none;stroke:white;stroke-width:83.33px;"/>
                <g transform="matrix(1.01494,0,0,0.791411,-14.8768,328.319)">
                    <rect x="996" y="1574" width="1339" height="163" style="fill:rgb(236,82,66);stroke:white;stroke-width:91.57px;"/>
                </g>
                <rect x="1380" y="1912" width="609" height="94" style="fill:none;stroke:white;stroke-width:29.17px;"/>
            </g>
        </g>
    </g>
</svg>
